<?xml version="1.0" encoding="UTF-8"?>
<svg version="1.1" xmlns="http://www.w3.org/2000/svg" width="62" height="35">
<path d="M0 0 C4.5478125 -0.1546875 4.5478125 -0.1546875 9.1875 -0.3125 C10.13391357 -0.35802002 11.08032715 -0.40354004 12.05541992 -0.45043945 C16.47809362 -0.52320396 18.41450547 -0.44099268 22.0546875 2.30078125 C24.47706093 5.66194599 24.9263385 7.87495579 25 12 C24.62875 12.886875 24.2575 13.77375 23.875 14.6875 C23.58625 15.450625 23.2975 16.21375 23 17 C23.98560611 18.34400833 24.98758315 19.67607028 26 21 C26.5412081 25.96107425 26.14534237 29.06832204 23 33 C20.05918795 34.81184862 17.8828775 35.24166051 14.453125 35.1953125 C13.69161133 35.19031738 12.93009766 35.18532227 12.14550781 35.18017578 C11.18999023 35.16196777 10.23447266 35.14375977 9.25 35.125 C4.67125 35.063125 4.67125 35.063125 0 35 C0 23.45 0 11.9 0 0 Z M7 7 C7 9.31 7 11.62 7 14 C12.32170494 14.29562367 12.32170494 14.29562367 17 12 C16.67 10.35 16.34 8.7 16 7 C13.03 7 10.06 7 7 7 Z M7 21 C7 23.31 7 25.62 7 28 C8.45823212 28.0270043 9.91660675 28.04639787 11.375 28.0625 C12.59316406 28.07990234 12.59316406 28.07990234 13.8359375 28.09765625 C16.04937142 28.14466334 16.04937142 28.14466334 18 27 C18.042721 25.33388095 18.04063832 23.66617115 18 22 C16.96593327 20.74050951 16.96593327 20.74050951 14.71484375 20.90234375 C13.79832031 20.91394531 12.88179687 20.92554687 11.9375 20.9375 C11.01839844 20.94652344 10.09929688 20.95554687 9.15234375 20.96484375 C8.44207031 20.97644531 7.73179688 20.98804687 7 21 Z " fill="#000000" transform="translate(36,0)"/>
<path d="M0 0 C0 11.55 0 23.1 0 35 C-2.31 35 -4.62 35 -7 35 C-7 33.02 -7 31.04 -7 29 C-9.25062454 29.03309742 -11.50073465 29.10257876 -13.75 29.1875 C-15.00296875 29.22230469 -16.2559375 29.25710937 -17.546875 29.29296875 C-21.81052544 30.165956 -22.49953821 31.59419859 -25 35 C-27.140625 35.48828125 -27.140625 35.48828125 -29.25 35.3125 C-30.4875 35.209375 -31.725 35.10625 -33 35 C-31.35821283 29.77329781 -28.10311535 25.77529421 -24.875 21.4375 C-20.02933228 14.97281097 -20.02933228 14.97281097 -15.71484375 8.15234375 C-15.08707031 7.07082031 -14.45929687 5.98929687 -13.8125 4.875 C-13.30332031 3.92367188 -12.79414063 2.97234375 -12.26953125 1.9921875 C-10 0 -10 0 0 0 Z M-9 11 C-10.22448914 12.80883767 -11.40481108 14.64769772 -12.5625 16.5 C-13.20316406 17.5209375 -13.84382813 18.541875 -14.50390625 19.59375 C-14.99761719 20.3878125 -15.49132812 21.181875 -16 22 C-13.03 22 -10.06 22 -7 22 C-7.33 18.37 -7.66 14.74 -8 11 C-8.33 11 -8.66 11 -9 11 Z " fill="#000000" transform="translate(33,0)"/>
</svg>
